<svg width="783" height="433" viewBox="0 0 783 433" fill="none" xmlns="http://www.w3.org/2000/svg">
<rect x="12" y="12" width="759" height="409" fill="#198CE0" stroke="#0161A6" stroke-width="24"/>
<rect x="241" width="34" height="433" fill="#0161A6"/>
<rect x="371" width="34" height="433" fill="#0161A6"/>
<rect x="498" width="34" height="433" fill="#0161A6"/>
<rect x="628" width="34" height="433" fill="#0161A6"/>
<rect x="114" width="34" height="433" fill="#0161A6"/>
<path fill-rule="evenodd" clip-rule="evenodd" d="M369.896 247.547C366.605 253.845 369.896 270.589 384.208 264.291C391.491 260.91 393.122 251.277 387.357 245.687C380.344 240.534 373.045 241.823 369.896 247.547Z" fill="#020202"/>
<path fill-rule="evenodd" clip-rule="evenodd" d="M258.553 185.865C260.27 195.024 266.711 195.74 267.999 185.865V171.554V159.674C267.929 158.866 267.929 158.051 267.999 157.242H269.429H279.448H299.77C300.916 167.26 302.203 177.135 303.491 187.153C304.779 197.171 312.364 194.309 313.796 187.153L313.509 157.242H314.941C326.103 157.242 337.409 155.954 348.573 155.239L350.576 176.133C350.651 178.406 352.6 180.161 354.869 179.997C357.5 179.893 359.37 177.4 358.734 174.845V154.093H373.045L394.941 152.376C396.23 164.112 398.52 175.561 400.237 187.153C403.386 193.307 407.106 192.162 410.97 187.153V157.099V151.231L433.297 149.514L448.609 148.656C448.609 150.659 448.609 152.09 449.326 153.092C449.09 157.859 449.09 162.636 449.326 167.404C448.694 170.984 452.176 173.904 455.592 172.66C457.745 171.876 459.025 169.66 458.627 167.404C458.621 162.62 458.908 157.84 459.486 153.092C459.36 149.625 458.928 146.178 458.199 142.788C457.698 140.361 455.658 138.554 453.19 138.351H449.182H431.578H408.823V132.913L406.534 111.445L405.674 102.142C405.758 101.67 405.758 101.186 405.674 100.712V67.3657V55.2021C405.566 53.0025 405.132 50.8321 404.387 48.7612C403.175 46.0746 400.465 44.3811 397.518 44.4673C395.086 44.3255 392.649 44.3255 390.219 44.4673H367.177C363.743 44.4673 357.446 43.7522 352.867 44.4673C349.257 44.6999 345.787 45.9386 342.848 48.0461C341.033 49.7104 339.953 52.0255 339.843 54.4855C339.637 57.583 339.637 60.6909 339.843 63.7884L341.703 89.9789V94.4146C335.836 94.4146 329.825 94.4146 322.382 95.5598C317.025 95.8069 311.706 96.5748 306.496 97.8501C302.869 98.7934 299.681 100.97 297.48 104.003C296.737 105.177 296.249 106.493 296.05 107.868C295.896 109.869 295.896 111.878 296.05 113.879V132.627L296.908 143.217L289.752 142.93C285.888 142.93 282.024 142.93 278.302 143.79C274.403 144.296 270.534 145.013 266.711 145.936C264.825 146.313 262.962 146.791 261.13 147.367C258.984 148.021 257.349 149.764 256.836 151.946C256.54 154.371 256.54 156.822 256.836 159.246C256.836 164.112 257.981 169.121 258.553 173.558V185.865ZM394.798 110.014L393.224 132.627V137.636H371.899H357.589V103.288L394.941 101.714L394.798 110.014ZM356.444 58.9227H368.466L391.649 57.0624H393.939V66.5072L395.514 92.6977H357.159V88.1171L355.727 61.9281C355.727 61.9281 356.3 60.353 356.444 58.9227ZM315.799 110.014C318.996 109.203 322.249 108.629 325.531 108.297C332.687 106.865 338.554 106.006 344.135 105.291L347.284 138.923L313.652 141.213V130.908V112.447V110.73C314.338 110.411 315.059 110.172 315.799 110.014Z" fill="#7EC1F2"/>
<path fill-rule="evenodd" clip-rule="evenodd" d="M584.426 114.308C583.011 113.023 581.283 112.136 579.417 111.732C576.436 111.22 573.423 110.934 570.4 110.874C565.264 110.727 560.126 111.159 555.086 112.161C550.196 113.157 545.406 114.593 540.776 116.455H539.057L537.914 111.159C536.29 105.458 533.779 100.048 530.471 95.1298C526.61 90.0754 521.736 85.8839 516.159 82.8229C512.999 80.7286 509.584 79.0452 505.999 77.8138C503.565 76.8339 500.847 76.8339 498.413 77.8138C495.623 79.8745 493.366 82.5742 491.83 85.685C488.923 90.6297 486.526 95.8552 484.674 101.284C480.923 110.332 479.402 120.149 480.237 129.907C481.053 138.129 483.229 146.156 486.678 153.663C482.302 168.9 471.989 181.741 458.055 189.3C447.192 193.8 435.444 195.759 423.707 195.024C379.199 193.164 290.324 200.32 258.124 199.175C250.538 199.175 246.246 203.039 245.959 205.758C244.027 223.978 244.027 242.351 245.959 260.571C247.745 273.455 251.713 285.942 257.694 297.494C278.595 330.127 313.411 351.26 352.007 354.74C389.662 360.65 428.217 354.065 461.776 335.992C476.106 327.353 488.367 315.678 497.698 301.788C510.72 281.373 520.384 259.001 526.32 235.525C528.336 228.653 529.725 221.611 530.471 214.487C530.471 208.906 530.471 203.326 531.76 193.164C531.739 189.528 527.79 187.278 524.652 189.113C523.211 189.955 522.322 191.495 522.313 193.164C521.598 202.896 521.455 208.335 520.596 213.772C519.713 220.241 518.228 226.614 516.159 232.807C510.034 254.83 500.367 275.712 487.536 294.632C478.849 306.413 467.718 316.176 454.907 323.255C433.218 334.766 409.047 340.809 384.495 340.858C378.955 337.745 373.731 334.104 368.894 329.981L361.596 323.255L354.583 316.242C350.212 311.83 346.237 307.04 342.705 301.932C347.381 300.095 351.882 297.843 356.157 295.204C359.11 293.082 358.657 288.56 355.344 287.065C354.247 286.57 353.003 286.513 351.863 286.905C344.039 289.767 335.847 291.501 327.535 292.055H304.35C292.244 291.912 280.157 291.099 268.141 289.623C262.36 279.653 258.341 268.759 256.263 257.422C253.699 240.953 252.979 224.248 254.117 207.618C263.571 209.55 273.127 210.935 282.74 211.769C293.354 212.759 304.039 212.759 314.654 211.769C330.827 210.195 347.999 208.62 363.027 207.905C369.653 207.557 376.293 207.557 382.919 207.905C394.083 207.905 404.816 209.336 414.834 209.336C431.84 210.391 448.834 207.09 464.208 199.747C480.693 189.588 492.244 173.065 496.123 154.093C496.629 152.314 495.936 150.411 494.406 149.371C491.982 142.702 490.584 135.705 490.255 128.62C490.317 120.765 492.177 113.029 495.694 106.006C497.202 102.729 498.874 99.529 500.703 96.4183C501.348 95.1985 502.116 94.049 502.994 92.9828C504.424 94.2713 507.859 94.8446 508.575 95.4164C512.001 97.8179 514.96 100.825 517.304 104.289C519.722 107.931 521.648 111.878 523.028 116.025L524.747 125.041C524.535 126.609 524.535 128.197 524.747 129.765C526.218 134.746 531.688 137.346 536.482 135.346C539.201 134.344 545.642 130.908 546.5 130.623C550.559 128.846 554.775 127.457 559.094 126.473C562.922 125.449 566.865 124.919 570.829 124.898C572.34 125.263 573.868 125.55 575.409 125.757C574.545 128.871 573.493 131.929 572.261 134.916C569.068 143.182 563.851 150.513 557.09 156.24C550.401 162.317 542.192 166.471 533.333 168.262C530.772 168.632 528.985 170.993 529.326 173.558C529.618 176.163 532.034 177.991 534.622 177.565C545.362 176.012 555.492 171.614 563.959 164.827C572.857 158.295 579.908 149.567 584.426 139.496C586.302 134.894 587.646 130.092 588.433 125.184C588.807 121.14 587.335 117.142 584.426 114.308ZM296.478 306.941C301.211 307.706 305.996 308.087 310.79 308.084C315.582 308.199 320.373 307.862 325.101 307.083C328 306.584 330.868 305.914 333.689 305.079C335.634 312.548 338.775 319.653 342.99 326.117C345.304 329.381 347.941 332.401 350.861 335.133C352.808 336.842 354.863 338.42 357.016 339.856H354.297C323.972 337.321 295.692 323.537 275.012 301.215C282.013 303.659 289.189 305.573 296.478 306.941Z" fill="#020202"/>
</svg>
