<svg width="415" height="312" viewBox="0 0 415 312" fill="none" xmlns="http://www.w3.org/2000/svg">
<path d="M7.65853 118.972C19.03 112.048 262.387 124.781 284.588 118.972C335.067 113.585 331.328 84.1957 323.148 70.1743C314.969 44.6135 304.219 -4.41696 326.654 3.94842C349.088 12.3138 347.686 44.6133 344.181 59.7174C365.213 42.2896 403.773 24.8617 410.784 38.804C417.795 52.7463 393.257 73.6597 368.719 84.1164C349.088 92.4818 344.181 110.839 344.181 118.972C341.376 202.626 319.307 229.241 316.137 237.482C312.967 245.723 243.224 323.924 119.833 307.193C-3.55887 290.462 -3.71295 125.896 7.65853 118.972Z" fill="#198CE0" stroke="#73ABFF" stroke-width="4.34183"/>
<path d="M63.8703 174.881C63.8703 175.993 63.8147 177.123 63.7036 178.271C63.5924 179.383 63.3701 180.476 63.0367 181.55C62.7032 182.588 62.2031 183.588 61.5361 184.551C60.8692 185.478 59.9615 186.293 58.813 186.997C58.2572 187.367 57.5903 187.682 56.8122 187.941C56.0712 188.164 55.2747 188.349 54.4225 188.497C53.6074 188.682 52.7923 188.794 51.9772 188.831C51.1621 188.905 50.4025 188.923 49.6986 188.886C46.3641 188.775 43.6594 187.978 41.5846 186.496C39.5468 184.977 37.9722 183.106 36.8607 180.883C35.7862 178.66 35.0823 176.252 34.7488 173.659C34.4524 171.028 34.3968 168.527 34.5821 166.156C34.6932 164.748 34.9341 163.229 35.3046 161.599C35.7121 159.968 36.2864 158.394 37.0274 156.875C37.8055 155.356 38.7502 153.985 39.8618 152.762C41.0103 151.54 42.3626 150.613 43.9188 149.983C45.3637 149.391 46.9383 149.02 48.6427 148.872C50.384 148.687 52.0883 148.742 53.7556 149.039C55.4599 149.335 57.0345 149.872 58.4795 150.65C59.9615 151.428 61.1286 152.466 61.9807 153.763C62.5736 154.726 63.0367 155.893 63.3701 157.264C63.7036 158.635 63.7592 159.95 63.5369 161.21C63.3516 162.321 62.9626 163.099 62.3698 163.544C61.777 163.951 61.1286 164.118 60.4246 164.044C59.7207 163.933 59.0353 163.636 58.3684 163.155C57.7385 162.636 57.3124 161.988 57.0901 161.21C56.8308 160.358 56.5158 159.579 56.1453 158.875C55.7748 158.134 55.2006 157.523 54.4225 157.042C53.5333 156.486 52.5885 156.171 51.5882 156.097C50.6248 156.023 49.6801 156.134 48.7538 156.43C47.8646 156.727 47.0124 157.19 46.1973 157.82C45.4193 158.449 44.7709 159.172 44.2522 159.987C43.6224 160.913 43.1407 161.932 42.8072 163.044C42.4738 164.118 42.233 165.248 42.0848 166.434C41.9366 167.582 41.881 168.749 41.918 169.935C41.9921 171.084 42.1403 172.195 42.3626 173.27C42.7702 175.085 43.4 176.789 44.2522 178.382C44.5857 178.975 45.0303 179.512 45.586 179.994C46.1788 180.439 46.8272 180.809 47.5312 181.106C48.2351 181.365 48.9761 181.532 49.7542 181.606C50.5322 181.68 51.2732 181.624 51.9772 181.439C52.9775 181.18 53.7926 180.846 54.4225 180.439C55.0524 179.994 55.5525 179.475 55.923 178.883C56.2935 178.29 56.5344 177.641 56.6455 176.937C56.7937 176.234 56.8678 175.493 56.8678 174.714V174.659C56.3862 174.659 55.9601 174.659 55.5896 174.659C55.2191 174.622 54.9412 174.603 54.756 174.603C53.9408 174.603 53.1443 174.455 52.3662 174.159C51.6993 173.936 51.1991 173.584 50.8657 173.103C50.4952 172.695 50.3099 172.195 50.3099 171.602C50.3099 171.38 50.3099 171.176 50.3099 170.991C50.347 170.769 50.384 170.546 50.4211 170.324C50.5322 170.028 50.773 169.657 51.1436 169.213C51.3659 169.027 51.7178 168.879 52.1995 168.768C52.4218 168.694 52.6441 168.638 52.8664 168.601C53.0887 168.527 53.348 168.472 53.6444 168.434C53.8667 168.397 54.1076 168.379 54.3669 168.379C54.6263 168.379 54.8856 168.379 55.145 168.379H60.2023C60.6099 168.342 61.073 168.397 61.5917 168.546C62.1475 168.657 62.5736 168.842 62.87 169.101C62.9811 169.25 63.0923 169.398 63.2034 169.546C63.3146 169.694 63.4072 169.861 63.4813 170.046C63.6295 170.454 63.7221 170.861 63.7592 171.269C63.7962 171.491 63.8147 171.732 63.8147 171.991C63.8518 172.214 63.8703 172.417 63.8703 172.603V174.881ZM128.397 165.767C128.471 166.989 128.452 168.249 128.341 169.546C128.267 170.843 128.137 172.102 127.952 173.325C127.582 175.437 126.896 177.493 125.896 179.494C124.896 181.495 123.432 183.199 121.505 184.607C119.505 186.089 117.226 187.108 114.67 187.664C112.113 188.182 109.575 188.497 107.056 188.608C106.204 188.682 105.333 188.701 104.444 188.664C103.592 188.664 102.758 188.571 101.943 188.386C101.276 188.275 100.776 188.071 100.442 187.775C100.257 187.664 100.109 187.515 99.9978 187.33C99.8866 187.145 99.794 186.96 99.7199 186.774C99.6087 186.589 99.5161 186.404 99.442 186.219C99.405 185.996 99.3494 185.774 99.2753 185.552C99.2382 185.366 99.2012 185.2 99.1641 185.051C99.1641 184.866 99.1641 184.7 99.1641 184.551V152.818C99.1641 152.558 99.1641 152.318 99.1641 152.095C99.1641 151.873 99.2012 151.651 99.2753 151.428C99.3494 150.91 99.4605 150.484 99.6087 150.15C99.757 149.706 99.9607 149.391 100.22 149.205C100.442 149.02 100.665 148.89 100.887 148.816C101.109 148.705 101.313 148.613 101.498 148.538C101.721 148.464 101.943 148.464 102.165 148.538C102.425 148.576 102.702 148.52 102.999 148.372L112.28 148.594C114.725 148.668 116.911 149.242 118.838 150.317C120.764 151.354 122.413 152.688 123.784 154.318C125.155 155.949 126.229 157.783 127.007 159.82C127.785 161.821 128.249 163.803 128.397 165.767ZM118.06 176.326C118.764 175.215 119.282 173.936 119.616 172.491C119.949 171.046 120.098 169.583 120.06 168.101C120.023 166.582 119.82 165.118 119.449 163.711C119.079 162.266 118.56 160.987 117.893 159.876C117.374 159.061 116.707 158.394 115.892 157.875C115.077 157.356 114.169 156.967 113.169 156.708C112.169 156.412 111.094 156.208 109.946 156.097C108.834 155.986 107.741 155.93 106.667 155.93C106.704 157.004 106.722 158.042 106.722 159.042C106.722 160.043 106.722 161.099 106.722 162.21C106.685 163.544 106.667 164.841 106.667 166.1C106.667 167.36 106.667 168.583 106.667 169.768V181.106C107.815 181.069 108.908 181.013 109.946 180.939C111.02 180.828 112.039 180.605 113.002 180.272C114.003 179.939 114.911 179.475 115.726 178.883C116.578 178.253 117.356 177.401 118.06 176.326ZM184.477 166.712C184.774 167.23 184.922 167.786 184.922 168.379C184.959 168.972 184.829 169.527 184.533 170.046C184.199 170.713 183.718 171.176 183.088 171.436C182.495 171.658 181.828 171.676 181.087 171.491C180.754 171.417 180.457 171.287 180.198 171.102C179.938 170.917 179.661 170.732 179.364 170.546C179.105 170.324 178.79 170.12 178.419 169.935C178.086 169.75 177.641 169.62 177.086 169.546C176.53 169.472 175.919 169.472 175.252 169.546C174.622 169.62 174.047 169.768 173.529 169.991C172.714 170.398 172.065 171.028 171.584 171.88C171.102 172.695 170.787 173.584 170.639 174.548C170.491 175.474 170.509 176.419 170.694 177.382C170.917 178.345 171.324 179.161 171.917 179.827C172.362 180.346 172.936 180.772 173.64 181.106C174.381 181.439 175.085 181.643 175.752 181.717C176.382 181.791 177.011 181.791 177.641 181.717C178.271 181.606 178.883 181.458 179.475 181.272C179.92 181.087 180.42 180.846 180.976 180.55C181.532 180.216 182.069 180.013 182.588 179.939C183.254 179.939 183.773 180.124 184.144 180.494C184.514 180.828 184.774 181.254 184.922 181.773C185.07 182.254 185.088 182.773 184.977 183.329C184.903 183.884 184.699 184.366 184.366 184.774C183.921 185.329 183.292 185.867 182.476 186.385C181.661 186.867 180.883 187.219 180.142 187.441C179.253 187.738 178.253 187.904 177.141 187.941C176.067 187.978 175.048 187.941 174.085 187.83C173.64 187.756 173.177 187.664 172.695 187.552C172.213 187.441 171.75 187.312 171.306 187.163C169.676 186.571 168.305 185.737 167.193 184.662C166.119 183.551 165.285 182.31 164.692 180.939C164.137 179.568 163.822 178.105 163.748 176.548C163.673 174.992 163.859 173.455 164.303 171.936C164.711 170.491 165.211 169.268 165.804 168.268C166.434 167.267 167.156 166.452 167.971 165.822C168.823 165.156 169.768 164.637 170.806 164.266C171.843 163.859 172.992 163.507 174.251 163.21C175.548 162.951 176.919 162.951 178.364 163.21C179.809 163.47 181.106 163.951 182.254 164.655C183.143 165.137 183.884 165.822 184.477 166.712ZM200.534 175.326C201.349 176.178 201.942 176.808 202.312 177.215C202.72 177.586 202.997 177.864 203.146 178.049C203.331 178.234 203.461 178.345 203.535 178.382C203.609 178.419 203.738 178.531 203.924 178.716C204.109 178.901 204.405 179.198 204.813 179.605C205.22 179.976 205.832 180.587 206.647 181.439C207.314 182.106 207.851 182.884 208.259 183.773C208.703 184.625 208.666 185.552 208.147 186.552C207.851 187.071 207.518 187.441 207.147 187.664C206.777 187.849 206.369 187.923 205.924 187.886C205.517 187.849 205.072 187.719 204.591 187.497C204.146 187.275 203.701 186.997 203.257 186.663C202.405 186.033 201.59 185.311 200.812 184.496C200.033 183.644 199.404 182.995 198.922 182.551C198.588 182.217 198.385 181.995 198.311 181.884C198.237 181.81 198.162 181.754 198.088 181.717C198.014 181.643 197.94 181.569 197.866 181.495C197.607 181.235 197.329 180.976 197.032 180.717C196.736 180.457 196.44 180.179 196.143 179.883V182.05C196.143 182.458 196.162 182.754 196.199 182.94C196.199 183.31 196.18 183.588 196.143 183.773C196.032 184.181 195.976 184.57 195.976 184.94C195.939 185.126 195.902 185.311 195.865 185.496C195.828 185.644 195.773 185.811 195.699 185.996C195.662 186.07 195.624 186.126 195.587 186.163C195.587 186.2 195.587 186.256 195.587 186.33C195.55 186.404 195.513 186.459 195.476 186.496C195.476 186.534 195.458 186.589 195.421 186.663C195.235 187.034 194.939 187.386 194.531 187.719C193.828 188.127 192.957 188.238 191.919 188.053C191.364 187.941 190.938 187.738 190.641 187.441C190.308 187.219 190.085 186.904 189.974 186.496C189.9 186.311 189.826 186.126 189.752 185.941C189.715 185.718 189.659 185.515 189.585 185.329C189.511 185.144 189.474 184.977 189.474 184.829C189.474 184.644 189.474 184.496 189.474 184.385V152.762C189.474 152.54 189.474 152.318 189.474 152.095C189.474 151.873 189.493 151.651 189.53 151.428C189.567 151.206 189.604 151.002 189.641 150.817C189.715 150.595 189.789 150.391 189.863 150.206C190.011 149.835 190.197 149.539 190.419 149.317C190.604 149.131 190.789 149.002 190.975 148.928C191.197 148.816 191.401 148.724 191.586 148.65C191.771 148.613 191.975 148.594 192.197 148.594C192.457 148.557 192.698 148.538 192.92 148.538C193.439 148.538 193.957 148.687 194.476 148.983C194.958 149.317 195.31 149.743 195.532 150.261C195.828 150.965 195.976 151.651 195.976 152.318C196.013 152.688 196.051 153.262 196.088 154.04C196.125 154.781 196.143 155.337 196.143 155.708V155.93C196.18 157.153 196.199 158.32 196.199 159.431C196.199 160.543 196.199 161.747 196.199 163.044C196.162 164.34 196.143 165.582 196.143 166.767C196.143 167.916 196.143 169.064 196.143 170.213V170.824C196.44 170.528 196.736 170.25 197.032 169.991C197.329 169.731 197.607 169.453 197.866 169.157C198.014 169.046 198.162 168.916 198.311 168.768L198.922 168.157C199.404 167.675 200.033 167.027 200.812 166.211C201.59 165.359 202.405 164.618 203.257 163.988C204.183 163.322 205.072 162.914 205.924 162.766C206.814 162.618 207.555 163.062 208.147 164.1C208.666 165.1 208.703 166.045 208.259 166.934C207.851 167.786 207.314 168.583 206.647 169.324C205.832 170.176 205.22 170.806 204.813 171.213C204.405 171.584 204.109 171.862 203.924 172.047C203.738 172.195 203.609 172.288 203.535 172.325C203.461 172.362 203.331 172.473 203.146 172.658C202.997 172.806 202.72 173.084 202.312 173.492C201.942 173.862 201.349 174.474 200.534 175.326ZM232.258 180.494C232.702 180.383 233.147 180.309 233.591 180.272C234.073 180.235 234.499 180.291 234.87 180.439C235.277 180.587 235.611 180.846 235.87 181.217C236.129 181.55 236.259 182.032 236.259 182.662C236.259 183.106 236.148 183.532 235.926 183.94C235.703 184.348 235.425 184.718 235.092 185.051C234.758 185.385 234.388 185.681 233.98 185.941C233.573 186.163 233.184 186.348 232.813 186.496C231.739 186.978 230.498 187.349 229.09 187.608C227.719 187.867 226.293 187.96 224.811 187.886C222.81 187.812 220.883 187.423 219.031 186.719C217.215 185.978 215.789 184.774 214.751 183.106C213.788 181.476 213.214 179.661 213.029 177.66C212.843 175.659 212.936 173.77 213.306 171.991C213.714 169.842 214.399 168.101 215.363 166.767C216.363 165.396 217.549 164.303 218.92 163.488C220.587 162.525 222.458 162.025 224.533 161.988C226.607 161.951 228.59 162.358 230.479 163.21C231.739 163.766 232.869 164.526 233.869 165.489C234.87 166.415 235.629 167.545 236.148 168.879C236.296 169.213 236.407 169.62 236.481 170.102C236.592 170.583 236.667 171.102 236.704 171.658C236.741 172.177 236.741 172.695 236.704 173.214C236.667 173.733 236.574 174.196 236.426 174.603C236.203 175.27 235.926 175.789 235.592 176.159C235.259 176.53 234.833 176.808 234.314 176.993C233.795 177.178 233.165 177.308 232.424 177.382C231.72 177.419 230.868 177.456 229.868 177.493C228.979 177.53 228.145 177.549 227.367 177.549C226.589 177.549 225.792 177.549 224.977 177.549C224.162 177.512 223.31 177.493 222.421 177.493C221.569 177.456 220.605 177.419 219.531 177.382C219.42 178.123 219.512 178.771 219.809 179.327C220.142 179.846 220.587 180.291 221.143 180.661C221.698 180.994 222.328 181.254 223.032 181.439C223.736 181.624 224.421 181.735 225.088 181.773C226.348 181.847 227.552 181.754 228.701 181.495C229.849 181.198 231.035 180.865 232.258 180.494ZM229.868 169.713C229.164 168.898 228.423 168.305 227.645 167.934C227.052 167.675 226.422 167.564 225.755 167.601C225.125 167.601 224.514 167.693 223.921 167.879C222.847 168.138 221.939 168.694 221.198 169.546C221.124 169.62 220.994 169.805 220.809 170.102C220.624 170.361 220.439 170.639 220.253 170.935C220.105 171.232 219.994 171.51 219.92 171.769C219.846 172.028 219.883 172.158 220.031 172.158H230.924C230.887 171.639 230.794 171.213 230.646 170.88C230.498 170.509 230.238 170.12 229.868 169.713ZM241.252 168.434C241.252 167.99 241.252 167.49 241.252 166.934C241.252 166.341 241.27 165.748 241.307 165.156C241.344 164.526 241.4 163.933 241.474 163.377C241.585 162.784 241.733 162.266 241.919 161.821C242.215 161.154 242.678 160.709 243.308 160.487C243.938 160.228 244.623 160.117 245.364 160.154C246.142 160.154 246.754 160.283 247.198 160.543C247.643 160.802 247.976 161.154 248.199 161.599C248.421 162.006 248.551 162.488 248.588 163.044C248.662 163.562 248.699 164.118 248.699 164.711C249.032 164.118 249.477 163.636 250.033 163.266C250.625 162.895 251.218 162.599 251.811 162.377C252.404 162.154 252.941 162.006 253.423 161.932C253.904 161.821 254.182 161.765 254.256 161.765C255.183 161.691 256.016 161.673 256.757 161.71C257.535 161.747 258.387 161.914 259.314 162.21C259.907 162.432 260.518 162.747 261.148 163.155C261.778 163.525 262.333 163.97 262.815 164.489C263.297 165.007 263.612 165.582 263.76 166.211C263.945 166.804 263.871 167.434 263.537 168.101C263.019 169.027 262.444 169.49 261.815 169.49C261.185 169.453 260.499 169.342 259.758 169.157C259.351 169.083 258.869 168.916 258.313 168.657C257.758 168.397 257.276 168.231 256.868 168.157C255.609 167.971 254.497 168.064 253.534 168.434C252.571 168.805 251.737 169.25 251.033 169.768C250.218 170.398 249.514 171.121 248.921 171.936V179.939C248.921 180.939 248.903 181.976 248.866 183.051C248.866 184.125 248.717 185.107 248.421 185.996C248.162 186.848 247.698 187.552 247.032 188.108C246.402 188.627 245.475 188.849 244.253 188.775C243.586 188.738 242.993 188.423 242.474 187.83C241.956 187.2 241.641 186.589 241.53 185.996C241.455 185.441 241.4 184.774 241.363 183.996C241.326 183.218 241.289 182.402 241.252 181.55C241.252 180.698 241.252 179.846 241.252 178.994C241.252 178.105 241.252 177.289 241.252 176.548V168.434ZM270.833 147.149C271.13 146.667 271.537 146.315 272.056 146.093C272.575 145.871 273.075 145.76 273.557 145.76C273.964 145.76 274.353 145.778 274.724 145.815C275.131 145.815 275.52 145.852 275.891 145.926C276.669 146.149 277.225 146.649 277.558 147.427C277.892 148.168 278.095 149.039 278.169 150.039C278.281 151.002 278.299 151.966 278.225 152.929C278.188 153.892 278.169 154.67 278.169 155.263V171.658C278.169 172.399 278.169 173.14 278.169 173.881C278.169 174.622 278.04 175.326 277.78 175.993C277.521 176.623 277.039 177.086 276.335 177.382C275.631 177.678 274.89 177.827 274.112 177.827C273.334 177.79 272.593 177.623 271.889 177.327C271.185 176.993 270.704 176.53 270.444 175.937C270.333 175.604 270.241 175.196 270.167 174.714C270.129 174.196 270.092 173.733 270.055 173.325C270.018 172.695 270 172.047 270 171.38C270.037 170.676 270.055 169.972 270.055 169.268V150.65C270.055 150.206 270.111 149.631 270.222 148.928C270.333 148.224 270.537 147.631 270.833 147.149ZM277.225 182.884C277.336 183.069 277.428 183.255 277.502 183.44C277.614 183.588 277.706 183.773 277.78 183.996C277.892 184.403 277.966 184.829 278.003 185.274C278.04 185.718 278.003 186.163 277.892 186.608C277.78 187.015 277.595 187.404 277.336 187.775C277.076 188.145 276.724 188.423 276.28 188.608C275.872 188.794 275.391 188.905 274.835 188.942C274.279 188.979 273.742 188.942 273.223 188.831C272.704 188.719 272.223 188.516 271.778 188.219C271.334 187.923 271.019 187.534 270.833 187.052C270.648 186.534 270.537 185.941 270.5 185.274C270.5 184.57 270.593 183.959 270.778 183.44C271 182.884 271.352 182.514 271.834 182.328C272.315 182.106 272.834 181.995 273.39 181.995C274.094 181.958 274.779 181.976 275.446 182.05C276.15 182.125 276.743 182.402 277.225 182.884Z" fill="white"/>
<path d="M75.5064 162.988C76.7291 162.395 78.0073 161.969 79.3411 161.71C80.6749 161.45 81.9902 161.395 83.287 161.543C84.6208 161.691 85.899 162.043 87.1217 162.599C88.3814 163.155 89.5299 163.933 90.5673 164.933C91.4195 165.785 92.1605 166.823 92.7903 168.045C93.4202 169.231 93.8833 170.398 94.1797 171.547C94.8096 173.584 94.9022 175.641 94.4576 177.716C94.013 179.79 93.2535 181.717 92.179 183.495C91.6603 184.31 91.0119 185.051 90.2339 185.718C89.4929 186.348 88.6963 186.867 87.8441 187.275C86.7326 187.793 85.5285 188.145 84.2317 188.33C82.935 188.553 81.6753 188.608 80.4526 188.497C78.2296 188.386 76.2659 187.83 74.5616 186.83C72.8944 185.83 71.542 184.551 70.5046 182.995C69.5043 181.439 68.8374 179.679 68.5039 177.716C68.2075 175.715 68.3372 173.677 68.8929 171.602C69.4857 169.379 70.3379 167.582 71.4494 166.211C72.598 164.804 73.9503 163.729 75.5064 162.988ZM77.1737 170.435C76.6179 170.954 76.1918 171.602 75.8954 172.38C75.599 173.158 75.4138 173.973 75.3397 174.826C75.2656 175.641 75.3212 176.474 75.5064 177.327C75.7287 178.142 76.0622 178.883 76.5068 179.55C76.8773 180.105 77.5442 180.568 78.5075 180.939C79.4708 181.309 80.4711 181.532 81.5085 181.606C82.6942 181.68 83.7316 181.365 84.6208 180.661C85.51 179.92 86.1769 179.012 86.6215 177.938C87.1031 176.863 87.3254 175.696 87.2884 174.437C87.2513 173.177 86.9179 172.028 86.288 170.991C85.8434 170.25 85.2136 169.713 84.3985 169.379C83.6204 169.009 82.7868 168.823 81.8976 168.823C81.0454 168.786 80.1933 168.916 79.3411 169.213C78.4889 169.472 77.7665 169.879 77.1737 170.435ZM140.145 162.988C141.368 162.395 142.646 161.969 143.98 161.71C145.314 161.45 146.629 161.395 147.926 161.543C149.26 161.691 150.538 162.043 151.761 162.599C153.02 163.155 154.169 163.933 155.206 164.933C156.058 165.785 156.799 166.823 157.429 168.045C158.059 169.231 158.522 170.398 158.819 171.547C159.449 173.584 159.541 175.641 159.097 177.716C158.652 179.79 157.892 181.717 156.818 183.495C156.299 184.31 155.651 185.051 154.873 185.718C154.132 186.348 153.335 186.867 152.483 187.275C151.372 187.793 150.167 188.145 148.871 188.33C147.574 188.553 146.314 188.608 145.092 188.497C142.869 188.386 140.905 187.83 139.201 186.83C137.533 185.83 136.181 184.551 135.144 182.995C134.143 181.439 133.476 179.679 133.143 177.716C132.846 175.715 132.976 173.677 133.532 171.602C134.125 169.379 134.977 167.582 136.088 166.211C137.237 164.804 138.589 163.729 140.145 162.988ZM141.813 170.435C141.257 170.954 140.831 171.602 140.534 172.38C140.238 173.158 140.053 173.973 139.979 174.826C139.905 175.641 139.96 176.474 140.145 177.327C140.368 178.142 140.701 178.883 141.146 179.55C141.516 180.105 142.183 180.568 143.146 180.939C144.11 181.309 145.11 181.532 146.147 181.606C147.333 181.68 148.37 181.365 149.26 180.661C150.149 179.92 150.816 179.012 151.26 177.938C151.742 176.863 151.964 175.696 151.927 174.437C151.89 173.177 151.557 172.028 150.927 170.991C150.482 170.25 149.853 169.713 149.037 169.379C148.259 169.009 147.426 168.823 146.537 168.823C145.684 168.786 144.832 168.916 143.98 169.213C143.128 169.472 142.405 169.879 141.813 170.435Z" fill="#D1ECFF"/>
<path d="M56.9532 208.516C79.0909 236.117 135.494 274.757 184.004 208.516" stroke="#D1ECFF" stroke-width="9.55202" stroke-linecap="round"/>
</svg>
