<svg width="519" height="433" viewBox="0 0 519 433" fill="none" xmlns="http://www.w3.org/2000/svg">
<rect x="1.02123" y="1.02123" width="516.741" height="430.958" fill="#198CE0" stroke="black" stroke-width="2.04245"/>
<rect x="37.7854" y="29.6156" width="449.34" height="306.368" fill="white" stroke="black" stroke-width="2.04245"/>
<path fill-rule="evenodd" clip-rule="evenodd" d="M249.731 217.568C247.319 222.222 249.731 234.596 260.225 229.942C265.565 227.443 266.76 220.324 262.534 216.193C257.392 212.385 252.04 213.337 249.731 217.568Z" fill="#020202"/>
<path fill-rule="evenodd" clip-rule="evenodd" d="M168.097 171.984C169.355 178.753 174.078 179.282 175.023 171.984V161.408V152.629C174.971 152.031 174.971 151.429 175.023 150.832H176.071H183.416H198.317C199.156 158.235 200.1 165.533 201.045 172.936C201.989 180.34 207.55 178.225 208.6 172.936L208.39 150.832H209.44C217.623 150.832 225.913 149.88 234.098 149.351L235.567 164.792C235.622 166.472 237.051 167.769 238.714 167.648C240.643 167.571 242.015 165.728 241.548 163.84V148.505H252.041L268.095 147.236C269.04 155.908 270.719 164.37 271.978 172.936C274.286 177.484 277.014 176.638 279.847 172.936V150.726V146.39L296.217 145.121L307.444 144.486C307.444 145.967 307.444 147.024 307.969 147.764C307.796 151.288 307.796 154.818 307.969 158.341C307.506 160.987 310.059 163.145 312.564 162.225C314.142 161.646 315.08 160.009 314.789 158.341C314.785 154.806 314.995 151.274 315.418 147.764C315.326 145.203 315.01 142.655 314.475 140.15C314.108 138.356 312.612 137.021 310.802 136.871H307.864H294.957H278.273V132.853L276.595 116.988L275.964 110.113C276.026 109.764 276.026 109.406 275.964 109.056V84.4123V75.4233C275.885 73.7978 275.567 72.1939 275.021 70.6635C274.132 68.6781 272.145 67.4265 269.984 67.4903C268.201 67.3854 266.415 67.3854 264.633 67.4903H247.739C245.221 67.4903 240.604 66.9618 237.246 67.4903C234.6 67.6621 232.055 68.5776 229.901 70.135C228.57 71.3649 227.778 73.0758 227.698 74.8937C227.546 77.1829 227.546 79.4796 227.698 81.7687L229.062 101.124V104.402C224.76 104.402 220.352 104.402 214.896 105.248C210.968 105.431 207.068 105.998 203.248 106.94C200.589 107.638 198.251 109.246 196.638 111.487C196.093 112.355 195.735 113.328 195.589 114.344C195.476 115.822 195.476 117.307 195.589 118.786V132.641L196.218 140.467L190.972 140.255C188.139 140.255 185.306 140.255 182.577 140.891C179.718 141.264 176.881 141.794 174.078 142.476C172.696 142.755 171.33 143.108 169.986 143.534C168.413 144.017 167.214 145.306 166.838 146.918C166.621 148.71 166.621 150.522 166.838 152.312C166.838 155.908 167.677 159.61 168.097 162.889V171.984ZM267.99 115.929L266.836 132.641V136.343H251.201H240.709V110.959L268.095 109.796L267.99 115.929ZM239.869 78.1729H248.683L265.681 76.7981H267.36V83.7779L268.515 103.133H240.393V99.7478L239.344 80.3939C239.344 80.3939 239.764 79.2299 239.869 78.1729ZM210.069 115.929C212.413 115.331 214.798 114.906 217.204 114.661C222.451 113.603 226.753 112.968 230.845 112.44L233.153 137.294L208.495 138.986V131.371V117.728V116.459C208.998 116.223 209.527 116.046 210.069 115.929Z" fill="#0161A6"/>
<path fill-rule="evenodd" clip-rule="evenodd" d="M407.022 119.103C405.985 118.154 404.718 117.498 403.35 117.199C401.164 116.821 398.955 116.609 396.739 116.565C392.973 116.457 389.206 116.776 385.511 117.516C381.925 118.252 378.414 119.313 375.019 120.689H373.759L372.92 116.776C371.73 112.563 369.889 108.565 367.463 104.93C364.633 101.195 361.059 98.0974 356.97 95.8353C354.653 94.2876 352.149 93.0436 349.521 92.1336C347.737 91.4094 345.743 91.4094 343.959 92.1336C341.913 93.6564 340.258 95.6516 339.132 97.9504C337.001 101.605 335.243 105.466 333.886 109.478C331.135 116.165 330.02 123.419 330.632 130.63C331.231 136.707 332.826 142.639 335.355 148.187C332.147 159.447 324.585 168.936 314.369 174.523C306.404 177.848 297.79 179.296 289.185 178.753C256.552 177.378 191.391 182.667 167.782 181.82C162.22 181.82 159.073 184.676 158.863 186.685C157.446 200.15 157.446 213.728 158.863 227.192C160.172 236.714 163.081 245.942 167.467 254.479C182.791 278.595 208.318 294.213 236.615 296.784C264.224 301.151 292.492 296.285 317.097 282.929C327.603 276.545 336.593 267.917 343.435 257.652C352.982 242.565 360.068 226.033 364.42 208.684C365.898 203.605 366.917 198.401 367.463 193.136C367.463 189.012 367.463 184.888 368.408 177.378C368.393 174.691 365.498 173.028 363.197 174.384C362.141 175.007 361.489 176.145 361.482 177.378C360.958 184.57 360.853 188.589 360.223 192.608C359.576 197.388 358.487 202.098 356.97 206.674C352.479 222.95 345.391 238.382 335.984 252.364C329.615 261.07 321.454 268.285 312.06 273.516C296.158 282.023 278.437 286.489 260.435 286.525C256.373 284.225 252.543 281.534 248.997 278.487L243.646 273.516L238.505 268.334C235.3 265.073 232.385 261.533 229.796 257.758C233.224 256.401 236.524 254.736 239.658 252.787C241.823 251.218 241.491 247.877 239.062 246.772C238.258 246.406 237.346 246.363 236.51 246.653C230.774 248.768 224.768 250.05 218.673 250.46H201.674C192.798 250.354 183.936 249.753 175.126 248.662C170.887 241.294 167.941 233.244 166.417 224.865C164.537 212.694 164.01 200.35 164.844 188.06C171.775 189.488 178.781 190.511 185.83 191.127C193.612 191.859 201.446 191.859 209.229 191.127C221.086 189.964 233.677 188.8 244.695 188.272C249.554 188.014 254.422 188.014 259.28 188.272C267.465 188.272 275.335 189.33 282.68 189.33C295.148 190.109 307.608 187.67 318.88 182.243C330.967 174.736 339.436 162.525 342.28 148.505C342.651 147.189 342.142 145.783 341.021 145.015C339.244 140.086 338.219 134.916 337.978 129.679C338.023 123.874 339.387 118.158 341.965 112.968C343.071 110.546 344.297 108.181 345.638 105.882C346.111 104.981 346.674 104.131 347.317 103.344C348.366 104.296 350.885 104.719 351.409 105.142C353.921 106.917 356.091 109.139 357.81 111.699C359.582 114.39 360.994 117.307 362.007 120.372L363.266 127.035C363.111 128.193 363.111 129.367 363.266 130.526C364.345 134.207 368.356 136.129 371.87 134.65C373.864 133.91 378.586 131.371 379.216 131.16C382.191 129.847 385.283 128.82 388.449 128.093C391.256 127.336 394.147 126.945 397.053 126.929C398.161 127.199 399.281 127.411 400.412 127.564C399.778 129.865 399.007 132.125 398.103 134.332C395.762 140.441 391.937 145.859 386.98 150.091C382.075 154.582 376.057 157.652 369.562 158.975C367.684 159.249 366.374 160.993 366.624 162.889C366.838 164.814 368.61 166.165 370.507 165.85C378.381 164.703 385.808 161.453 392.017 156.437C398.54 151.61 403.71 145.16 407.022 137.717C408.398 134.316 409.383 130.768 409.96 127.141C410.235 124.152 409.155 121.197 407.022 119.103ZM195.903 261.46C199.373 262.025 202.881 262.307 206.396 262.305C209.909 262.389 213.422 262.141 216.888 261.565C219.014 261.196 221.116 260.701 223.185 260.084C224.611 265.604 226.914 270.854 230.005 275.631C231.701 278.044 233.634 280.276 235.776 282.295C237.203 283.557 238.71 284.723 240.288 285.784H238.295C216.061 283.911 195.326 273.725 180.164 257.229C185.297 259.035 190.558 260.449 195.903 261.46Z" fill="#020202"/>
<path d="M34.1171 393.148L34.1661 389.276L34.2151 382.07C34.2478 381.024 34.2641 379.946 34.2641 378.835C34.2641 377.724 34.2641 376.58 34.2641 375.403C34.2641 374.227 34.2641 373.181 34.2641 372.266C34.2641 371.351 34.2968 370.322 34.3622 369.178V368.982C34.3948 368.655 34.4112 368.328 34.4112 368.002C34.4439 367.642 34.4602 367.283 34.4602 366.923C34.4929 366.335 34.6726 365.698 34.9994 365.011C35.2282 364.554 35.5713 364.162 36.0288 363.835C36.5517 363.574 37.0582 363.443 37.5484 363.443C37.8098 363.443 38.0386 363.459 38.2346 363.492C38.4634 363.492 38.6758 363.508 38.8719 363.541C39.2967 363.606 39.6725 363.802 39.9993 364.129C40.1954 364.293 40.3751 364.554 40.5385 364.913C40.6039 365.11 40.6529 365.306 40.6856 365.502C40.7509 365.665 40.8 365.845 40.8326 366.041C40.8653 366.27 40.8817 366.482 40.8817 366.678C40.9143 366.874 40.9307 367.07 40.9307 367.266C40.9307 367.495 40.9143 367.708 40.8817 367.904C40.8817 368.067 40.8817 368.247 40.8817 368.443V369.276L40.5875 394.717V395.207C40.5875 395.305 40.5712 395.436 40.5385 395.599C40.5385 395.73 40.5222 395.893 40.4895 396.089C40.4242 396.253 40.3588 396.433 40.2934 396.629C40.2608 396.792 40.2117 396.972 40.1464 397.168C40.0483 397.331 39.934 397.495 39.8032 397.658C39.7052 397.789 39.5745 397.919 39.4111 398.05C39.1497 398.312 38.7248 398.491 38.1366 398.589C37.2543 398.785 36.4209 398.704 35.6366 398.344C35.2445 398.083 34.9667 397.756 34.8033 397.364C34.7053 397.266 34.6563 397.168 34.6563 397.07C34.6236 397.004 34.5909 396.955 34.5582 396.923C34.5255 396.89 34.4929 396.841 34.4602 396.776C34.3948 396.612 34.3458 396.449 34.3131 396.286C34.2805 396.089 34.2641 395.893 34.2641 395.697C34.2314 395.534 34.1988 395.371 34.1661 395.207C34.1661 395.044 34.1497 394.88 34.1171 394.717C34.0844 394.455 34.0844 394.178 34.1171 393.884V393.148ZM72.9044 386.923C72.9697 387.969 73.0024 388.965 73.0024 389.913C73.0024 390.828 72.9697 391.808 72.9044 392.854C72.9044 393.246 72.9044 393.688 72.9044 394.178C72.9044 394.668 72.8717 395.142 72.8064 395.599C72.741 396.057 72.6266 396.482 72.4632 396.874C72.2998 397.266 72.0547 397.576 71.7279 397.805C71.3358 398.067 70.8946 398.246 70.4044 398.344C69.9142 398.41 69.4567 398.377 69.0319 398.246C68.6071 398.116 68.2313 397.87 67.9045 397.511C67.6103 397.152 67.447 396.645 67.4143 395.991C67.3162 394.488 67.2672 392.985 67.2672 391.482C67.2672 390.73 67.2509 390.011 67.2182 389.325C67.2182 388.639 67.2345 387.675 67.2672 386.433C67.2672 385.812 67.2182 385.109 67.1202 384.325C67.0221 383.508 66.777 382.936 66.3849 382.609C66.0908 382.348 65.764 382.201 65.4045 382.168C65.045 382.103 64.6856 382.135 64.3261 382.266C63.9993 382.397 63.7052 382.642 63.4437 383.001C63.1823 383.328 63.0026 383.753 62.9045 384.276C62.9045 384.701 62.8882 385.142 62.8555 385.599C62.8555 386.024 62.8719 386.433 62.9045 386.825C62.9372 387.871 62.9536 388.867 62.9536 389.815C62.9536 390.73 62.9372 391.71 62.9045 392.756C62.8719 393.181 62.8555 393.639 62.8555 394.129C62.8882 394.619 62.8882 395.109 62.8555 395.599C62.8228 396.057 62.7248 396.482 62.5614 396.874C62.4307 397.266 62.1856 397.576 61.8261 397.805C61.434 398.067 61.0091 398.23 60.5516 398.295C60.1268 398.328 59.7183 398.263 59.3262 398.099C58.9667 397.903 58.6399 397.609 58.3458 397.217C58.0843 396.825 57.9373 396.302 57.9046 395.648C57.8393 394.897 57.7902 394.21 57.7576 393.589C57.7576 392.936 57.7576 392.25 57.7576 391.531C57.7576 390.779 57.7739 390.011 57.8066 389.227C57.8393 388.41 57.8229 387.626 57.7576 386.874C57.7576 386.645 57.7412 386.384 57.7085 386.09C57.7085 385.763 57.6922 385.436 57.6595 385.109C57.6595 384.782 57.6268 384.472 57.5615 384.178C57.5288 383.851 57.4634 383.59 57.3654 383.394C57.104 382.936 56.6301 382.642 55.9439 382.511C55.2903 382.381 54.7347 382.43 54.2772 382.658C53.8197 382.887 53.4766 383.181 53.2478 383.541C53.0191 383.9 52.8557 384.292 52.7576 384.717C52.6596 385.142 52.6106 385.599 52.6106 386.09C52.6106 386.547 52.6106 386.988 52.6106 387.413C52.6106 389.537 52.6106 391.384 52.6106 392.952C52.6433 394.488 52.4799 395.73 52.1204 396.678C51.957 397.168 51.6139 397.544 51.091 397.805C50.6008 398.067 50.0616 398.197 49.4734 398.197C48.9178 398.197 48.395 398.067 47.9048 397.805C47.4146 397.544 47.0878 397.135 46.9244 396.58C46.8263 396.22 46.7283 395.714 46.6303 395.06C46.5649 394.374 46.5159 393.622 46.4832 392.805C46.4505 391.988 46.4342 391.171 46.4342 390.354C46.4342 389.505 46.4342 388.737 46.4342 388.05V380.992C46.4015 380.24 46.3852 379.423 46.3852 378.541C46.3852 377.658 46.5159 376.858 46.7773 376.139C47.0061 375.518 47.3656 375.126 47.8557 374.962C48.3459 374.766 48.8525 374.685 49.3753 374.717C49.9636 374.717 50.4211 374.881 50.7479 375.207C51.1073 375.502 51.3688 375.877 51.5322 376.335C51.6956 376.76 51.7936 377.25 51.8263 377.805C51.859 378.328 51.8916 378.835 51.9243 379.325C52.2838 378.508 52.7086 377.838 53.1988 377.315C53.7217 376.76 54.457 376.4 55.4047 376.237C57.8229 375.779 59.751 376.4 61.1889 378.1C61.8425 377.446 62.6758 376.907 63.6888 376.482C64.4731 376.188 65.2738 376.057 66.0908 376.09C66.9077 376.09 67.6757 376.237 68.3947 376.531C69.1463 376.825 69.8162 377.25 70.4044 377.805C71.0253 378.361 71.5155 379.031 71.875 379.815C72.3652 380.861 72.643 382.021 72.7083 383.296C72.7737 384.57 72.839 385.779 72.9044 386.923ZM82.6603 377.707C83.6407 377.217 84.6701 376.874 85.7485 376.678C86.8269 376.449 87.889 376.4 88.9347 376.531C90.0131 376.629 91.0425 376.907 92.0229 377.364C93.0033 377.789 93.9183 378.41 94.768 379.227C95.6176 380.077 96.2712 381.008 96.7287 382.021C97.1862 383.034 97.513 384.162 97.7091 385.403C97.8398 386.253 98.0522 387.037 98.3463 387.756C98.6404 388.475 98.9509 389.194 99.2777 389.913C99.6372 390.632 99.964 391.351 100.258 392.07C100.585 392.789 100.846 393.54 101.042 394.325C101.206 395.076 101.14 395.812 100.846 396.531C100.585 397.217 100.029 397.642 99.1797 397.805C98.6895 397.903 98.2156 397.87 97.7581 397.707C97.3333 397.511 96.9411 397.25 96.5817 396.923C96.2222 396.563 95.8954 396.187 95.6013 395.795C95.3398 395.371 95.0947 394.978 94.866 394.619C94.1144 395.599 93.2974 396.367 92.415 396.923C91.5327 397.446 90.4706 397.789 89.2288 397.952C88.1831 398.083 87.1864 398.116 86.2387 398.05C85.291 397.985 84.2779 397.805 83.1995 397.511C81.7943 397.152 80.6342 396.531 79.7192 395.648C78.8368 394.733 78.1506 393.688 77.6604 392.511C77.2029 391.302 76.9578 390.011 76.9251 388.639C76.8924 387.266 77.0558 385.91 77.4153 384.57C77.8728 382.805 78.559 381.367 79.4741 380.256C80.3891 379.145 81.4512 378.296 82.6603 377.707ZM83.8858 383.443C83.4283 383.9 83.0688 384.439 82.8073 385.06C82.5459 385.681 82.3825 386.335 82.3172 387.021C82.2845 387.707 82.3498 388.393 82.5132 389.08C82.6766 389.766 82.9381 390.371 83.2975 390.893C83.6243 391.351 84.1799 391.743 84.9642 392.07C85.7485 392.364 86.5655 392.544 87.4151 392.609C88.3955 392.674 89.2452 392.413 89.9641 391.825C90.7157 391.237 91.2713 390.501 91.6307 389.619C92.0229 388.704 92.2026 387.74 92.17 386.727C92.1373 385.681 91.8595 384.733 91.3366 383.884C90.9445 383.263 90.4216 382.805 89.768 382.511C89.1471 382.217 88.4772 382.07 87.7583 382.07C87.0393 382.037 86.3204 382.152 85.6014 382.413C84.9152 382.642 84.3433 382.985 83.8858 383.443ZM125.463 389.08C125.463 390.125 125.431 391.253 125.365 392.462C125.333 393.671 125.284 394.799 125.218 395.844C125.218 396.825 125.169 397.805 125.071 398.785C125.006 399.635 124.875 400.55 124.679 401.531C124.483 402.544 124.205 403.475 123.846 404.325C123.388 405.436 122.767 406.383 121.983 407.168C121.199 407.985 120.186 408.573 118.944 408.932C117.898 409.194 116.918 409.357 116.003 409.423C115.088 409.521 114.107 409.504 113.062 409.374C112.375 409.276 111.64 409.079 110.856 408.785C110.071 408.524 109.336 408.181 108.65 407.756C107.964 407.331 107.359 406.825 106.836 406.236C106.313 405.681 105.954 405.044 105.758 404.325C105.529 403.442 105.513 402.674 105.709 402.021C105.937 401.367 106.281 400.893 106.738 400.599C107.196 400.305 107.735 400.256 108.356 400.452C108.977 400.648 109.565 401.155 110.12 401.972C110.513 402.56 111.084 403.034 111.836 403.393C112.588 403.753 113.388 403.965 114.238 404.031C115.088 404.096 115.905 403.981 116.689 403.687C117.506 403.426 118.143 402.952 118.601 402.266C118.927 401.776 119.156 401.073 119.287 400.158C119.45 399.243 119.548 398.344 119.581 397.462C117.914 398.148 116.199 398.41 114.434 398.246C112.702 398.05 111.117 397.511 109.679 396.629C108.274 395.714 107.13 394.505 106.248 393.001C105.398 391.465 105.039 389.733 105.17 387.805C105.268 386.139 105.611 384.57 106.199 383.099C106.82 381.629 107.833 380.403 109.238 379.423C110.382 378.639 111.673 378.132 113.111 377.903C114.548 377.642 115.937 377.511 117.277 377.511C118.061 377.511 118.829 377.511 119.581 377.511C120.365 377.511 121.084 377.609 121.738 377.805C122.391 378.001 122.98 378.328 123.503 378.786C124.025 379.243 124.418 379.913 124.679 380.796C125.104 382.168 125.333 383.524 125.365 384.864C125.431 386.204 125.463 387.609 125.463 389.08ZM116.003 393.148C116.329 393.148 116.64 393.116 116.934 393.05C117.261 392.985 117.571 392.903 117.865 392.805C118.421 392.609 118.829 392.348 119.091 392.021C119.385 391.694 119.581 391.335 119.679 390.942C119.777 390.518 119.81 390.06 119.777 389.57C119.777 389.08 119.777 388.573 119.777 388.05C119.777 387.626 119.761 387.152 119.728 386.629C119.728 386.106 119.695 385.616 119.63 385.158C119.565 384.668 119.467 384.243 119.336 383.884C119.205 383.524 119.009 383.296 118.748 383.197C118.29 383.067 117.767 382.985 117.179 382.952C116.591 382.887 116.003 382.887 115.414 382.952C114.826 382.985 114.254 383.099 113.699 383.296C113.176 383.459 112.735 383.688 112.375 383.982C111.885 384.407 111.509 384.929 111.248 385.55C110.986 386.171 110.823 386.825 110.758 387.511C110.725 388.197 110.774 388.867 110.905 389.521C111.068 390.175 111.346 390.763 111.738 391.286C112.196 391.939 112.816 392.413 113.601 392.707C114.385 393.001 115.186 393.148 116.003 393.148ZM146.399 391.629C146.791 391.531 147.183 391.465 147.575 391.433C148 391.4 148.376 391.449 148.703 391.58C149.062 391.71 149.356 391.939 149.585 392.266C149.814 392.56 149.928 392.985 149.928 393.54C149.928 393.933 149.83 394.308 149.634 394.668C149.438 395.027 149.193 395.354 148.899 395.648C148.605 395.942 148.278 396.204 147.919 396.433C147.559 396.629 147.216 396.792 146.889 396.923C145.941 397.348 144.847 397.674 143.605 397.903C142.396 398.132 141.138 398.214 139.83 398.148C138.066 398.083 136.366 397.74 134.732 397.119C133.131 396.465 131.873 395.403 130.958 393.933C130.108 392.495 129.602 390.893 129.438 389.129C129.275 387.364 129.357 385.697 129.684 384.129C130.043 382.233 130.648 380.698 131.497 379.521C132.38 378.312 133.425 377.348 134.634 376.629C136.105 375.779 137.755 375.338 139.585 375.305C141.415 375.273 143.164 375.632 144.83 376.384C145.941 376.874 146.938 377.544 147.821 378.394C148.703 379.211 149.373 380.207 149.83 381.384C149.961 381.678 150.059 382.037 150.124 382.462C150.222 382.887 150.288 383.345 150.321 383.835C150.353 384.292 150.353 384.75 150.321 385.207C150.288 385.665 150.206 386.073 150.075 386.433C149.879 387.021 149.634 387.478 149.34 387.805C149.046 388.132 148.67 388.377 148.213 388.541C147.755 388.704 147.2 388.818 146.546 388.884C145.925 388.916 145.174 388.949 144.291 388.982C143.507 389.014 142.772 389.031 142.085 389.031C141.399 389.031 140.696 389.031 139.978 389.031C139.259 388.998 138.507 388.982 137.723 388.982C136.971 388.949 136.121 388.916 135.174 388.884C135.076 389.537 135.157 390.109 135.419 390.599C135.713 391.057 136.105 391.449 136.595 391.776C137.085 392.07 137.641 392.299 138.262 392.462C138.883 392.625 139.487 392.723 140.076 392.756C141.187 392.822 142.249 392.74 143.262 392.511C144.275 392.25 145.321 391.956 146.399 391.629ZM144.291 382.119C143.67 381.4 143.017 380.877 142.33 380.55C141.808 380.322 141.252 380.224 140.664 380.256C140.108 380.256 139.569 380.338 139.046 380.501C138.098 380.73 137.298 381.22 136.644 381.972C136.579 382.037 136.464 382.201 136.301 382.462C136.138 382.691 135.974 382.936 135.811 383.197C135.68 383.459 135.582 383.704 135.517 383.933C135.451 384.162 135.484 384.276 135.615 384.276H145.223C145.19 383.818 145.108 383.443 144.977 383.148C144.847 382.822 144.618 382.479 144.291 382.119ZM173.34 376.188C174.418 375.665 175.546 375.289 176.722 375.06C177.899 374.832 179.059 374.783 180.202 374.913C181.379 375.044 182.506 375.354 183.585 375.845C184.696 376.335 185.709 377.021 186.624 377.903C187.376 378.655 188.029 379.57 188.585 380.649C189.14 381.694 189.549 382.724 189.81 383.737C190.366 385.534 190.447 387.348 190.055 389.178C189.663 391.008 188.993 392.707 188.045 394.276C187.588 394.995 187.016 395.648 186.33 396.237C185.676 396.792 184.974 397.25 184.222 397.609C183.242 398.067 182.18 398.377 181.036 398.54C179.892 398.736 178.781 398.785 177.703 398.687C175.742 398.589 174.01 398.099 172.507 397.217C171.036 396.335 169.843 395.207 168.928 393.835C168.046 392.462 167.458 390.91 167.163 389.178C166.902 387.413 167.016 385.616 167.507 383.786C168.029 381.825 168.781 380.24 169.761 379.031C170.775 377.789 171.967 376.841 173.34 376.188ZM174.81 382.756C174.32 383.214 173.944 383.786 173.683 384.472C173.422 385.158 173.258 385.877 173.193 386.629C173.127 387.348 173.176 388.083 173.34 388.835C173.536 389.554 173.83 390.207 174.222 390.795C174.549 391.286 175.137 391.694 175.987 392.021C176.837 392.348 177.719 392.544 178.634 392.609C179.68 392.674 180.595 392.397 181.379 391.776C182.163 391.122 182.751 390.322 183.144 389.374C183.568 388.426 183.765 387.397 183.732 386.286C183.699 385.175 183.405 384.162 182.849 383.247C182.457 382.593 181.902 382.119 181.183 381.825C180.497 381.498 179.761 381.335 178.977 381.335C178.225 381.302 177.474 381.416 176.722 381.678C175.971 381.907 175.333 382.266 174.81 382.756ZM206.791 377.609C207.347 377.773 207.706 378.083 207.869 378.541C208.033 378.966 208.082 379.423 208.016 379.913C207.82 380.926 207.265 381.547 206.35 381.776C205.827 381.907 205.288 381.972 204.732 381.972C204.209 381.972 203.67 381.988 203.115 382.021V393.344C203.115 394.129 203.066 394.929 202.968 395.746C202.968 396.04 202.886 396.351 202.722 396.678C202.657 396.841 202.608 396.939 202.575 396.972C202.575 397.037 202.543 397.135 202.477 397.266C202.281 397.625 202.02 397.919 201.693 398.148C200.974 398.54 200.206 398.638 199.389 398.442C198.899 398.344 198.523 398.181 198.262 397.952C197.968 397.723 197.755 397.446 197.624 397.119C197.559 396.955 197.51 396.792 197.477 396.629C197.445 396.465 197.396 396.302 197.33 396.138C197.298 395.975 197.265 395.828 197.232 395.697C197.232 395.534 197.232 395.403 197.232 395.305V392.462C197.232 390.763 197.232 388.998 197.232 387.168C197.265 385.338 197.281 383.573 197.281 381.874C196.53 381.841 195.745 381.825 194.928 381.825C194.144 381.792 193.572 381.596 193.213 381.237C193.017 381.041 192.886 380.796 192.821 380.501C192.755 380.175 192.723 379.848 192.723 379.521C192.755 379.194 192.821 378.9 192.919 378.639C193.017 378.345 193.147 378.132 193.311 378.001C193.736 377.609 194.111 377.397 194.438 377.364C194.798 377.299 195.239 377.25 195.762 377.217C195.827 377.217 196.04 377.217 196.399 377.217C196.791 377.185 197.036 377.168 197.134 377.168C197.167 376.057 197.2 374.946 197.232 373.835C197.265 372.724 197.363 371.711 197.526 370.796C197.723 369.848 198 369.031 198.36 368.345C198.752 367.626 199.34 367.087 200.124 366.727C201.072 366.302 202.151 366.041 203.36 365.943C204.569 365.845 205.664 365.992 206.644 366.384C207.101 366.547 207.543 366.874 207.967 367.364C208.425 367.855 208.637 368.394 208.605 368.982C208.572 369.57 208.458 370.109 208.262 370.6C208.065 371.09 207.641 371.417 206.987 371.58C206.693 371.645 206.383 371.678 206.056 371.678C205.762 371.645 205.451 371.629 205.124 371.629C204.798 371.629 204.487 371.678 204.193 371.776C203.932 371.841 203.703 371.989 203.507 372.217C203.343 372.413 203.229 372.675 203.164 373.002C203.131 373.328 203.098 373.671 203.066 374.031C203.033 374.39 203.017 374.75 203.017 375.109C203.049 375.436 203.066 375.714 203.066 375.943V377.168C203.817 377.234 204.503 377.283 205.124 377.315C205.778 377.348 206.333 377.446 206.791 377.609ZM231.057 377.707C232.038 377.217 233.067 376.874 234.145 376.678C235.224 376.449 236.286 376.4 237.332 376.531C238.41 376.629 239.439 376.907 240.42 377.364C241.4 377.789 242.315 378.41 243.165 379.227C244.015 380.077 244.668 381.008 245.126 382.021C245.583 383.034 245.91 384.162 246.106 385.403C246.237 386.253 246.449 387.037 246.743 387.756C247.037 388.475 247.348 389.194 247.675 389.913C248.034 390.632 248.361 391.351 248.655 392.07C248.982 392.789 249.243 393.54 249.439 394.325C249.603 395.076 249.537 395.812 249.243 396.531C248.982 397.217 248.426 397.642 247.577 397.805C247.086 397.903 246.613 397.87 246.155 397.707C245.73 397.511 245.338 397.25 244.979 396.923C244.619 396.563 244.292 396.187 243.998 395.795C243.737 395.371 243.492 394.978 243.263 394.619C242.511 395.599 241.694 396.367 240.812 396.923C239.93 397.446 238.868 397.789 237.626 397.952C236.58 398.083 235.583 398.116 234.636 398.05C233.688 397.985 232.675 397.805 231.596 397.511C230.191 397.152 229.031 396.531 228.116 395.648C227.234 394.733 226.548 393.688 226.057 392.511C225.6 391.302 225.355 390.011 225.322 388.639C225.289 387.266 225.453 385.91 225.812 384.57C226.27 382.805 226.956 381.367 227.871 380.256C228.786 379.145 229.848 378.296 231.057 377.707ZM232.283 383.443C231.825 383.9 231.466 384.439 231.204 385.06C230.943 385.681 230.779 386.335 230.714 387.021C230.681 387.707 230.747 388.393 230.91 389.08C231.074 389.766 231.335 390.371 231.695 390.893C232.021 391.351 232.577 391.743 233.361 392.07C234.145 392.364 234.962 392.544 235.812 392.609C236.792 392.674 237.642 392.413 238.361 391.825C239.113 391.237 239.668 390.501 240.028 389.619C240.42 388.704 240.6 387.74 240.567 386.727C240.534 385.681 240.256 384.733 239.734 383.884C239.341 383.263 238.819 382.805 238.165 382.511C237.544 382.217 236.874 382.07 236.155 382.07C235.436 382.037 234.717 382.152 233.998 382.413C233.312 382.642 232.74 382.985 232.283 383.443ZM291.643 384.08C291.806 384.537 291.92 385.06 291.986 385.648C292.084 386.204 292.133 386.776 292.133 387.364C292.133 387.952 292.084 388.541 291.986 389.129C291.92 389.684 291.822 390.175 291.692 390.599C291.169 392.429 290.123 393.965 288.554 395.207C286.986 396.416 285.189 397.299 283.162 397.854C281.169 398.41 279.094 398.606 276.937 398.442C274.813 398.279 272.917 397.74 271.251 396.825C270.205 396.237 269.306 395.518 268.555 394.668C267.803 393.818 267.166 392.871 266.643 391.825C266.447 391.465 266.316 391.057 266.251 390.599C266.218 390.109 266.267 389.652 266.398 389.227C266.529 388.769 266.741 388.377 267.035 388.05C267.329 387.691 267.738 387.446 268.261 387.315C268.587 387.25 268.947 387.217 269.339 387.217C269.764 387.217 270.172 387.282 270.565 387.413C270.957 387.511 271.316 387.691 271.643 387.952C271.97 388.181 272.231 388.508 272.427 388.933C272.787 389.619 273.293 390.256 273.947 390.844C274.633 391.4 275.352 391.857 276.104 392.217C277.182 392.576 278.261 392.723 279.339 392.658C280.45 392.593 281.447 392.348 282.329 391.923C283.244 391.498 283.979 390.926 284.535 390.207C285.09 389.456 285.368 388.606 285.368 387.658C285.368 386.874 285.254 386.237 285.025 385.746C284.796 385.224 284.47 384.799 284.045 384.472C283.653 384.113 283.162 383.818 282.574 383.59C282.019 383.361 281.398 383.165 280.711 383.001C279.927 382.838 279.127 382.724 278.31 382.658C277.525 382.593 276.725 382.511 275.908 382.413C275.091 382.315 274.29 382.184 273.506 382.021C272.721 381.858 271.953 381.613 271.202 381.286C269.699 380.665 268.555 379.717 267.77 378.443C266.986 377.168 266.512 375.796 266.349 374.325C266.218 372.855 266.398 371.4 266.888 369.962C267.378 368.492 268.163 367.234 269.241 366.188C270.287 365.24 271.529 364.57 272.966 364.178C274.437 363.753 276.055 363.508 277.819 363.443C278.8 363.41 279.78 363.443 280.76 363.541C281.774 363.639 282.738 363.802 283.653 364.031C284.6 364.26 285.466 364.554 286.251 364.913C287.068 365.273 287.77 365.698 288.358 366.188C288.783 366.515 289.208 366.956 289.633 367.511C290.058 368.034 290.385 368.606 290.613 369.227C290.842 369.815 290.907 370.387 290.809 370.943C290.744 371.498 290.401 371.972 289.78 372.364C289.257 372.691 288.751 372.838 288.26 372.805C287.803 372.74 287.362 372.593 286.937 372.364C286.512 372.103 286.104 371.809 285.711 371.482C285.319 371.155 284.96 370.861 284.633 370.6C283.751 369.946 282.656 369.505 281.349 369.276C280.042 369.047 278.816 368.998 277.672 369.129C276.953 369.227 276.283 369.391 275.663 369.619C275.042 369.848 274.502 370.158 274.045 370.551C273.62 370.943 273.277 371.433 273.015 372.021C272.787 372.577 272.705 373.214 272.77 373.933C272.803 374.456 272.95 374.897 273.212 375.256C273.506 375.616 273.849 375.91 274.241 376.139C274.666 376.368 275.123 376.547 275.613 376.678C276.104 376.809 276.594 376.907 277.084 376.972C278.555 377.168 280.025 377.315 281.496 377.413C282.966 377.511 284.404 377.838 285.809 378.394C287.247 378.949 288.473 379.701 289.486 380.649C290.499 381.596 291.218 382.74 291.643 384.08ZM322.838 366.335C323.034 367.904 323.149 369.734 323.181 371.825C323.214 373.884 323.181 375.975 323.083 378.1C323.018 380.191 322.871 382.184 322.642 384.08C322.413 385.943 322.136 387.446 321.809 388.59C321.58 389.276 321.302 389.995 320.975 390.746C320.681 391.465 320.355 392.119 319.995 392.707C319.472 393.589 318.835 394.374 318.083 395.06C317.332 395.714 316.498 396.286 315.583 396.776C314.701 397.233 313.753 397.593 312.74 397.854C311.76 398.116 310.78 398.263 309.799 398.295C308.067 398.361 306.417 398.116 304.848 397.56C303.312 396.972 301.891 396.057 300.584 394.815C299.603 393.867 298.819 392.854 298.231 391.776C297.642 390.697 297.185 389.57 296.858 388.393C296.531 387.184 296.319 385.943 296.221 384.668C296.156 383.394 296.123 382.086 296.123 380.747C296.123 380.126 296.107 379.358 296.074 378.443C296.074 377.495 296.074 376.531 296.074 375.551C296.074 374.537 296.074 373.557 296.074 372.609C296.074 371.662 296.09 370.861 296.123 370.207C296.123 369.783 296.123 369.325 296.123 368.835C296.123 368.312 296.139 367.806 296.172 367.315C296.237 366.793 296.335 366.302 296.466 365.845C296.597 365.355 296.793 364.913 297.054 364.521C297.348 364.096 297.757 363.786 298.28 363.59C298.803 363.394 299.342 363.296 299.897 363.296C300.486 363.296 301.041 363.41 301.564 363.639C302.087 363.868 302.512 364.195 302.838 364.619C303.002 364.881 303.116 365.142 303.182 365.404C303.247 365.665 303.296 365.959 303.329 366.286C303.394 367.364 303.427 368.59 303.427 369.962C303.459 371.335 303.459 372.675 303.427 373.982C303.427 375.256 303.41 376.433 303.378 377.511C303.345 378.59 303.329 379.39 303.329 379.913C303.329 381.874 303.427 383.655 303.623 385.256C303.819 386.825 304.276 388.132 304.995 389.178C305.649 390.125 306.417 390.73 307.299 390.991C308.182 391.253 309.064 391.335 309.946 391.237C310.763 391.139 311.58 390.844 312.397 390.354C313.247 389.831 313.917 389.08 314.407 388.099C314.603 387.74 314.766 387.331 314.897 386.874C315.028 386.416 315.126 385.992 315.191 385.599C315.322 384.358 315.436 382.92 315.534 381.286C315.632 379.619 315.714 377.92 315.779 376.188C315.845 374.456 315.878 372.756 315.878 371.09C315.878 369.423 315.861 367.92 315.828 366.58C315.894 365.992 316.074 365.453 316.368 364.962C316.629 364.538 317.005 364.162 317.495 363.835C317.985 363.508 318.655 363.345 319.505 363.345C320.191 363.378 320.747 363.557 321.172 363.884C321.596 364.178 321.94 364.505 322.201 364.864C322.495 365.289 322.707 365.779 322.838 366.335ZM352.533 384.08C352.697 384.537 352.811 385.06 352.876 385.648C352.974 386.204 353.023 386.776 353.023 387.364C353.023 387.952 352.974 388.541 352.876 389.129C352.811 389.684 352.713 390.175 352.582 390.599C352.059 392.429 351.014 393.965 349.445 395.207C347.876 396.416 346.079 397.299 344.053 397.854C342.06 398.41 339.984 398.606 337.828 398.442C335.703 398.279 333.808 397.74 332.141 396.825C331.096 396.237 330.197 395.518 329.445 394.668C328.694 393.818 328.057 392.871 327.534 391.825C327.338 391.465 327.207 391.057 327.142 390.599C327.109 390.109 327.158 389.652 327.289 389.227C327.419 388.769 327.632 388.377 327.926 388.05C328.22 387.691 328.628 387.446 329.151 387.315C329.478 387.25 329.838 387.217 330.23 387.217C330.655 387.217 331.063 387.282 331.455 387.413C331.847 387.511 332.207 387.691 332.534 387.952C332.86 388.181 333.122 388.508 333.318 388.933C333.677 389.619 334.184 390.256 334.837 390.844C335.524 391.4 336.243 391.857 336.994 392.217C338.073 392.576 339.151 392.723 340.23 392.658C341.341 392.593 342.337 392.348 343.22 391.923C344.135 391.498 344.87 390.926 345.426 390.207C345.981 389.456 346.259 388.606 346.259 387.658C346.259 386.874 346.144 386.237 345.916 385.746C345.687 385.224 345.36 384.799 344.935 384.472C344.543 384.113 344.053 383.818 343.465 383.59C342.909 383.361 342.288 383.165 341.602 383.001C340.818 382.838 340.017 382.724 339.2 382.658C338.416 382.593 337.615 382.511 336.798 382.413C335.981 382.315 335.181 382.184 334.396 382.021C333.612 381.858 332.844 381.613 332.092 381.286C330.589 380.665 329.445 379.717 328.661 378.443C327.877 377.168 327.403 375.796 327.24 374.325C327.109 372.855 327.289 371.4 327.779 369.962C328.269 368.492 329.053 367.234 330.132 366.188C331.177 365.24 332.419 364.57 333.857 364.178C335.328 363.753 336.945 363.508 338.71 363.443C339.69 363.41 340.671 363.443 341.651 363.541C342.664 363.639 343.628 363.802 344.543 364.031C345.491 364.26 346.357 364.554 347.141 364.913C347.958 365.273 348.661 365.698 349.249 366.188C349.674 366.515 350.099 366.956 350.524 367.511C350.948 368.034 351.275 368.606 351.504 369.227C351.733 369.815 351.798 370.387 351.7 370.943C351.635 371.498 351.291 371.972 350.671 372.364C350.148 372.691 349.641 372.838 349.151 372.805C348.693 372.74 348.252 372.593 347.827 372.364C347.403 372.103 346.994 371.809 346.602 371.482C346.21 371.155 345.85 370.861 345.524 370.6C344.641 369.946 343.546 369.505 342.239 369.276C340.932 369.047 339.707 368.998 338.563 369.129C337.844 369.227 337.174 369.391 336.553 369.619C335.932 369.848 335.393 370.158 334.936 370.551C334.511 370.943 334.168 371.433 333.906 372.021C333.677 372.577 333.596 373.214 333.661 373.933C333.694 374.456 333.841 374.897 334.102 375.256C334.396 375.616 334.739 375.91 335.132 376.139C335.556 376.368 336.014 376.547 336.504 376.678C336.994 376.809 337.484 376.907 337.975 376.972C339.445 377.168 340.916 377.315 342.386 377.413C343.857 377.511 345.295 377.838 346.7 378.394C348.138 378.949 349.363 379.701 350.376 380.649C351.39 381.596 352.108 382.74 352.533 384.08ZM404.697 365.6C404.828 366.221 404.828 366.874 404.697 367.56C404.632 367.887 404.567 368.214 404.501 368.541C404.469 368.835 404.42 369.145 404.354 369.472L404.305 369.668C403.848 371.694 403.325 373.835 402.737 376.09C402.181 378.312 401.675 380.42 401.217 382.413C400.825 384.047 400.416 385.845 399.992 387.805C399.567 389.766 399.126 391.563 398.668 393.197C398.505 393.753 398.325 394.308 398.129 394.864C397.965 395.42 397.753 395.975 397.492 396.531C397.263 397.021 396.985 397.462 396.658 397.854C396.364 398.214 396.021 398.475 395.629 398.638C395.237 398.835 394.812 398.9 394.354 398.835C393.93 398.802 393.456 398.606 392.933 398.246C392.149 397.691 391.56 396.923 391.168 395.942C390.809 394.962 390.433 394.063 390.041 393.246C389.91 393.018 389.714 392.511 389.453 391.727C389.191 390.942 388.913 390.093 388.619 389.178C388.325 388.23 388.031 387.331 387.737 386.482C387.475 385.599 387.247 384.946 387.051 384.521C386.757 385.24 386.462 386.057 386.168 386.972C385.874 387.887 385.596 388.786 385.335 389.668C385.074 390.55 384.828 391.351 384.6 392.07C384.404 392.756 384.257 393.263 384.159 393.589C383.897 394.243 383.603 394.962 383.276 395.746C382.982 396.531 382.606 397.201 382.149 397.756C381.724 398.312 381.201 398.671 380.58 398.835C379.959 399.031 379.224 398.851 378.374 398.295C377.721 397.903 377.263 397.348 377.002 396.629C376.838 396.171 376.675 395.73 376.512 395.305C376.348 394.88 376.217 394.439 376.119 393.982L375.139 390.305L373.129 382.413C372.868 381.4 372.606 380.371 372.345 379.325C372.116 378.247 371.838 377.135 371.512 375.992C371.348 375.436 371.201 374.897 371.07 374.374C370.972 373.819 370.858 373.23 370.727 372.609C370.629 371.956 370.499 371.221 370.335 370.404C370.204 369.587 370.041 368.639 369.845 367.56C369.78 367.201 369.731 366.874 369.698 366.58C369.698 366.253 369.731 365.927 369.796 365.6C369.861 365.11 370.09 364.685 370.482 364.325C370.646 364.162 370.842 364.031 371.07 363.933C371.299 363.835 371.544 363.753 371.806 363.688C372.198 363.557 372.606 363.492 373.031 363.492C373.423 363.492 373.832 363.623 374.257 363.884C374.551 364.047 374.78 364.26 374.943 364.521L375.531 365.551C375.597 365.779 375.662 365.992 375.727 366.188C375.793 366.351 375.858 366.531 375.923 366.727C375.989 366.956 376.038 367.168 376.07 367.364C376.103 367.528 376.136 367.691 376.168 367.855C376.463 369.554 376.822 371.204 377.247 372.805C377.672 374.407 378.064 375.943 378.423 377.413C378.554 378.001 378.717 378.737 378.913 379.619C379.11 380.469 379.306 381.367 379.502 382.315C379.698 383.23 379.894 384.113 380.09 384.962C380.286 385.812 380.482 386.482 380.678 386.972C381.103 385.501 381.528 384.031 381.953 382.56C382.41 381.09 382.9 379.603 383.423 378.1C383.685 377.315 383.946 376.613 384.208 375.992C384.502 375.338 384.828 374.799 385.188 374.374C385.547 373.949 385.956 373.671 386.413 373.541C386.871 373.41 387.41 373.459 388.031 373.688C388.587 373.917 389.077 374.407 389.502 375.158C389.926 375.91 390.302 376.678 390.629 377.462C390.923 378.181 391.201 378.949 391.462 379.766C391.756 380.55 392.034 381.335 392.296 382.119C392.59 382.871 392.868 383.59 393.129 384.276C393.39 384.962 393.652 385.55 393.913 386.041C394.011 385.681 394.126 385.224 394.256 384.668C394.387 384.113 394.518 383.524 394.649 382.903C394.812 382.25 394.959 381.613 395.09 380.992C395.22 380.371 395.351 379.799 395.482 379.276C395.907 377.511 396.348 375.747 396.805 373.982C397.263 372.185 397.704 370.42 398.129 368.688L398.374 367.855C398.439 367.691 398.472 367.528 398.472 367.364C398.505 367.168 398.554 366.956 398.619 366.727C398.684 366.531 398.75 366.351 398.815 366.188C398.881 365.992 398.946 365.779 399.011 365.551C399.077 365.387 399.142 365.224 399.207 365.061C399.305 364.864 399.42 364.685 399.55 364.521C399.648 364.358 399.763 364.227 399.894 364.129C400.024 364.031 400.155 363.949 400.286 363.884C400.743 363.623 401.135 363.492 401.462 363.492C401.887 363.492 402.295 363.557 402.688 363.688C403.211 363.786 403.684 363.998 404.109 364.325C404.436 364.652 404.632 365.077 404.697 365.6ZM427.877 388.688C427.91 389.341 427.926 390.027 427.926 390.746C427.926 391.433 427.91 392.07 427.877 392.658C427.845 393.54 427.795 394.357 427.73 395.109C427.665 395.828 427.534 396.449 427.338 396.972C427.142 397.462 426.831 397.838 426.407 398.099C426.014 398.328 425.459 398.393 424.74 398.295C423.988 398.197 423.449 397.838 423.122 397.217C422.796 396.596 422.567 395.893 422.436 395.109C422.338 394.292 422.305 393.475 422.338 392.658C422.371 391.841 422.371 391.204 422.338 390.746C422.305 390.027 422.273 389.21 422.24 388.295C422.24 387.348 422.142 386.465 421.946 385.648C421.783 384.799 421.488 384.08 421.064 383.492C420.639 382.903 420.001 382.593 419.152 382.56C418.073 382.495 417.24 382.577 416.652 382.805C416.096 383.034 415.688 383.377 415.426 383.835C415.165 384.26 415.002 384.782 414.936 385.403C414.904 386.024 414.838 386.694 414.74 387.413L414.691 389.325V392.903C414.691 393.491 414.675 394.112 414.642 394.766C414.642 395.387 414.544 395.959 414.348 396.482C414.152 397.004 413.841 397.446 413.417 397.805C413.024 398.165 412.436 398.344 411.652 398.344C410.672 398.344 409.936 398.034 409.446 397.413C408.989 396.759 408.76 395.959 408.76 395.011V366.825C408.76 366.629 408.76 366.449 408.76 366.286C408.793 366.09 408.825 365.894 408.858 365.698C408.923 365.502 408.972 365.322 409.005 365.159C409.038 364.962 409.087 364.783 409.152 364.619C409.25 364.293 409.413 364.047 409.642 363.884C409.806 363.721 409.969 363.59 410.132 363.492C410.296 363.394 410.475 363.329 410.672 363.296C410.835 363.263 411.015 363.247 411.211 363.247C411.407 363.214 411.603 363.198 411.799 363.198C412.289 363.198 412.763 363.345 413.221 363.639C413.417 363.77 413.596 363.917 413.76 364.08C413.923 364.211 414.054 364.407 414.152 364.668C414.413 365.289 414.544 365.877 414.544 366.433C414.577 366.596 414.593 366.842 414.593 367.168C414.626 367.462 414.642 367.773 414.642 368.1C414.642 368.426 414.642 368.753 414.642 369.08C414.675 369.374 414.691 369.603 414.691 369.766V370.011C414.724 371.057 414.74 372.119 414.74 373.198C414.74 374.276 414.74 375.371 414.74 376.482V377.315C416.113 376.858 417.551 376.645 419.054 376.678C420.557 376.678 421.897 376.972 423.073 377.56C424.282 378.181 425.197 378.884 425.818 379.668C426.472 380.452 426.946 381.318 427.24 382.266C427.534 383.214 427.697 384.227 427.73 385.305C427.795 386.384 427.845 387.511 427.877 388.688ZM437.568 377.707C438.549 377.217 439.578 376.874 440.657 376.678C441.735 376.449 442.797 376.4 443.843 376.531C444.921 376.629 445.951 376.907 446.931 377.364C447.911 377.789 448.826 378.41 449.676 379.227C450.526 380.077 451.179 381.008 451.637 382.021C452.094 383.034 452.421 384.162 452.617 385.403C452.748 386.253 452.96 387.037 453.254 387.756C453.549 388.475 453.859 389.194 454.186 389.913C454.545 390.632 454.872 391.351 455.166 392.07C455.493 392.789 455.754 393.54 455.95 394.325C456.114 395.076 456.048 395.812 455.754 396.531C455.493 397.217 454.937 397.642 454.088 397.805C453.598 397.903 453.124 397.87 452.666 397.707C452.241 397.511 451.849 397.25 451.49 396.923C451.13 396.563 450.803 396.187 450.509 395.795C450.248 395.371 450.003 394.978 449.774 394.619C449.022 395.599 448.205 396.367 447.323 396.923C446.441 397.446 445.379 397.789 444.137 397.952C443.091 398.083 442.094 398.116 441.147 398.05C440.199 397.985 439.186 397.805 438.108 397.511C436.702 397.152 435.542 396.531 434.627 395.648C433.745 394.733 433.059 393.688 432.568 392.511C432.111 391.302 431.866 390.011 431.833 388.639C431.8 387.266 431.964 385.91 432.323 384.57C432.781 382.805 433.467 381.367 434.382 380.256C435.297 379.145 436.359 378.296 437.568 377.707ZM438.794 383.443C438.336 383.9 437.977 384.439 437.715 385.06C437.454 385.681 437.291 386.335 437.225 387.021C437.193 387.707 437.258 388.393 437.421 389.08C437.585 389.766 437.846 390.371 438.206 390.893C438.532 391.351 439.088 391.743 439.872 392.07C440.657 392.364 441.474 392.544 442.323 392.609C443.304 392.674 444.153 392.413 444.872 391.825C445.624 391.237 446.179 390.501 446.539 389.619C446.931 388.704 447.111 387.74 447.078 386.727C447.045 385.681 446.768 384.733 446.245 383.884C445.853 383.263 445.33 382.805 444.676 382.511C444.055 382.217 443.385 382.07 442.666 382.07C441.947 382.037 441.228 382.152 440.51 382.413C439.823 382.642 439.251 382.985 438.794 383.443ZM466.548 394.423C466.515 394.586 466.483 394.75 466.45 394.913C466.45 395.044 466.45 395.191 466.45 395.354L466.156 396.384C466.091 396.514 466.042 396.596 466.009 396.629L465.862 396.923C465.698 397.282 465.404 397.576 464.98 397.805C464.195 398.197 463.362 398.295 462.48 398.099C461.924 398.034 461.483 397.87 461.156 397.609C460.829 397.38 460.6 397.103 460.47 396.776C460.339 396.449 460.241 396.122 460.176 395.795C460.078 395.469 460.029 395.174 460.029 394.913V367.462C460.029 367.234 460.029 367.038 460.029 366.874C460.061 366.678 460.094 366.498 460.127 366.335C460.159 366.106 460.192 365.91 460.225 365.747C460.29 365.583 460.355 365.404 460.421 365.208C460.519 364.881 460.699 364.619 460.96 364.423C461.352 364.129 461.728 363.966 462.087 363.933C462.316 363.868 462.529 363.835 462.725 363.835C462.921 363.802 463.149 363.786 463.411 363.786C463.868 363.786 464.391 363.917 464.98 364.178C465.437 364.44 465.764 364.799 465.96 365.257C466.287 365.91 466.45 366.515 466.45 367.07C466.483 367.397 466.499 367.887 466.499 368.541C466.532 369.194 466.548 369.685 466.548 370.011V370.207C466.613 371.253 466.646 372.266 466.646 373.247C466.646 374.194 466.63 375.24 466.597 376.384C466.597 377.495 466.581 378.573 466.548 379.619C466.548 380.632 466.548 381.645 466.548 382.658V392.952C466.548 393.083 466.548 393.214 466.548 393.344C466.581 393.442 466.597 393.557 466.597 393.688C466.597 394.014 466.581 394.259 466.548 394.423ZM487.521 391.629C487.913 391.531 488.305 391.465 488.697 391.433C489.122 391.4 489.498 391.449 489.824 391.58C490.184 391.71 490.478 391.939 490.707 392.266C490.936 392.56 491.05 392.985 491.05 393.54C491.05 393.933 490.952 394.308 490.756 394.668C490.56 395.027 490.315 395.354 490.02 395.648C489.726 395.942 489.4 396.204 489.04 396.433C488.681 396.629 488.338 396.792 488.011 396.923C487.063 397.348 485.968 397.674 484.726 397.903C483.517 398.132 482.259 398.214 480.952 398.148C479.187 398.083 477.488 397.74 475.854 397.119C474.253 396.465 472.995 395.403 472.08 393.933C471.23 392.495 470.723 390.893 470.56 389.129C470.397 387.364 470.478 385.697 470.805 384.129C471.165 382.233 471.769 380.698 472.619 379.521C473.501 378.312 474.547 377.348 475.756 376.629C477.227 375.779 478.877 375.338 480.707 375.305C482.537 375.273 484.285 375.632 485.952 376.384C487.063 376.874 488.06 377.544 488.942 378.394C489.824 379.211 490.494 380.207 490.952 381.384C491.083 381.678 491.181 382.037 491.246 382.462C491.344 382.887 491.409 383.345 491.442 383.835C491.475 384.292 491.475 384.75 491.442 385.207C491.409 385.665 491.328 386.073 491.197 386.433C491.001 387.021 490.756 387.478 490.462 387.805C490.168 388.132 489.792 388.377 489.334 388.541C488.877 388.704 488.321 388.818 487.668 388.884C487.047 388.916 486.295 388.949 485.413 388.982C484.628 389.014 483.893 389.031 483.207 389.031C482.521 389.031 481.818 389.031 481.099 389.031C480.38 388.998 479.628 388.982 478.844 388.982C478.093 388.949 477.243 388.916 476.295 388.884C476.197 389.537 476.279 390.109 476.54 390.599C476.834 391.057 477.227 391.449 477.717 391.776C478.207 392.07 478.762 392.299 479.383 392.462C480.004 392.625 480.609 392.723 481.197 392.756C482.308 392.822 483.37 392.74 484.383 392.511C485.396 392.25 486.442 391.956 487.521 391.629ZM485.413 382.119C484.792 381.4 484.138 380.877 483.452 380.55C482.929 380.322 482.374 380.224 481.785 380.256C481.23 380.256 480.691 380.338 480.168 380.501C479.22 380.73 478.419 381.22 477.766 381.972C477.7 382.037 477.586 382.201 477.423 382.462C477.259 382.691 477.096 382.936 476.932 383.197C476.802 383.459 476.704 383.704 476.638 383.933C476.573 384.162 476.606 384.276 476.736 384.276H486.344C486.311 383.818 486.23 383.443 486.099 383.148C485.968 382.822 485.74 382.479 485.413 382.119Z" fill="white"/>
</svg>
